<svg xmlns="http://www.w3.org/2000/svg" viewBox="0 0 448 512">
    <path fill="green" d="m403.52687,177.1871l-9.88005,-8.93755c-1.64938,-2.16939 -3.83502,-3.25002 -6.58941,-3.25002s-4.94003,1.08063 -6.58941,3.25002l-231.40931,227.50117l-81.53479,-80.43791c-1.64938,-2.16939 -3.83502,-3.25002 -6.58941,-3.25002s-4.94003,1.08063 -6.58941,3.25002l-9.88005,8.93755c-1.64938,2.16939 -2.47001,4.6069 -2.47001,7.31254s0.82063,4.87503 2.47001,6.50003l98.00425,96.688c2.18564,2.16939 4.52565,3.25002 7.00379,3.25002s4.81002,-1.08063 7.00379,-3.25002l247.05814,-243.75125c1.64938,-1.62501 2.47001,-3.79439 2.47001,-6.50003s-0.82875,-5.14315 -2.47814,-7.31254zm-258.2057,101.5874c2.15314,2.15314 4.45252,3.22564 6.88191,3.22564s4.72877,-1.07251 6.88191,-3.22564l179.48217,-178.93779c1.61688,-1.62501 2.42939,-3.77814 2.42939,-6.46753s-0.8125,-5.11065 -2.42939,-7.26379l-9.71755,-8.88067c-1.61688,-2.15314 -3.77002,-3.22564 -6.47566,-3.22564s-4.85877,1.07251 -6.47566,3.22564l-164.10147,162.80146l-58.70343,-58.52468c-1.61688,-2.15314 -3.77002,-3.22564 -6.47566,-3.22564s-4.85877,1.07251 -6.47566,3.22564l-9.71755,8.88067c-1.61688,2.15314 -2.42939,4.5744 -2.42939,7.26379s0.8125,4.84252 2.42939,6.45941l74.89663,74.66913z"/>
</svg>