<svg height="12" version="1.1" viewBox="0 0 16 16" width="12" xmlns="http://www.w3.org/2000/svg">
<!--    <path fill="silver" d="M8 2C4.7 2 2 4.7 2 8s2.7 6 6 6 6-2.7 6-6-2.7-6-6-6zm-.5 5.5h.9v.9h-.9v-.9zm-3.8.2c-.1 0-.2-.1-.2-.2 0-.4.1-1.2.6-2S5.3 4.2 5.6 4c.2 0 .3 0 .3.1l1.3 2.3c0 .1 0 .2-.1.2-.1.2-.2.3-.3.5-.1.2-.2.4-.2.5 0 .1-.1.2-.2.2l-2.7-.1zM9.9 12c-.3.2-1.1.5-2 .5-.9 0-1.7-.3-2-.5-.1 0-.1-.2-.1-.3l1.3-2.3c0-.1.1-.1.2-.1.2.1.3.1.5.1s.4 0 .5-.1c.1 0 .2 0 .2.1l1.3 2.3c.2.2.2.3.1.3zm2.5-4.1L9.7 8c-.1 0-.2-.1-.2-.2 0-.2-.1-.4-.2-.5 0-.1-.2-.3-.3-.4-.1 0-.1-.1-.1-.2l1.3-2.3c.1-.1.2-.1.3-.1.3.2 1 .7 1.5 1.5s.6 1.6.6 2c0 0-.1.1-.2.1z"></path>-->
    <path fill="silver" d="M8,15.1a7,7,0,1,0-7-7A7,7,0,0,0,8,15.1Zm.74-8.9,1.46-2.52a.29.29,0,0,1,.25-.14.3.3,0,0,1,.15,0,5.26,5.26,0,0,1,2.61,4.53.28.28,0,0,1-.29.29H10a.28.28,0,0,1-.29-.29,1.78,1.78,0,0,0-.88-1.51A.29.29,0,0,1,8.75,6.2Zm.11,3.44A.23.23,0,0,1,9,9.6a.29.29,0,0,1,.25.14l1.46,2.52a.18.18,0,0,1,0,.13.3.3,0,0,1-.15.27,5.3,5.3,0,0,1-5.23,0,.3.3,0,0,1-.1-.4L6.73,9.74A.29.29,0,0,1,7,9.6a.23.23,0,0,1,.14,0A1.79,1.79,0,0,0,8.86,9.64ZM5.33,3.59a.3.3,0,0,1,.41.1L7.2,6.21a.29.29,0,0,1-.1.4,1.79,1.79,0,0,0-.87,1.51.28.28,0,0,1-.29.29H3a.32.32,0,0,1-.32-.29A5.26,5.26,0,0,1,5.33,3.59Z"></path>
</svg>