<!--<svg xmlns="http://www.w3.org/2000/svg" viewBox="0 0 512 512">-->
<!--    <path fill="currentColor" d="M504 256c0 136.997-111.043 248-248 248S8 392.997 8 256C8 119.083 119.043 8 256 8s248 111.083 248 248zm-248 50c-25.405 0-46 20.595-46 46s20.595 46 46 46 46-20.595 46-46-20.595-46-46-46zm-43.673-165.346l7.418 136c.347 6.364 5.609 11.346 11.982 11.346h48.546c6.373 0 11.635-4.982 11.982-11.346l7.418-136c.375-6.874-5.098-12.654-11.982-12.654h-63.383c-6.884 0-12.356 5.78-11.981 12.654z" class=""></path>-->
<!--</svg>-->
<!--<svg xmlns="http://www.w3.org/2000/svg" viewBox="0 0 512 512" class="svg-inline&#45;&#45;fa fa-exclamation-circle fa-w-16 fa-2x"><path d="M256 40c118.621 0 216 96.075 216 216 0 119.291-96.61 216-216 216-119.244 0-216-96.562-216-216 0-119.203 96.602-216 216-216m0-32C119.043 8 8 119.083 8 256c0 136.997 111.043 248 248 248s248-111.003 248-248C504 119.083 392.957 8 256 8zm-11.49 120h22.979c6.823 0 12.274 5.682 11.99 12.5l-7 168c-.268 6.428-5.556 11.5-11.99 11.5h-8.979c-6.433 0-11.722-5.073-11.99-11.5l-7-168c-.283-6.818 5.167-12.5 11.99-12.5zM256 340c-15.464 0-28 12.536-28 28s12.536 28 28 28 28-12.536 28-28-12.536-28-28-28z" class=""></path></svg>-->
<svg xmlns="http://www.w3.org/2000/svg" viewBox="0 0 448 512"><path fill="green" d="M444.09 166.99l-27.39-28.37c-2.6-1.96-5.53-2.93-8.8-2.93-3.27 0-5.87.98-7.82 2.93L142.81 396.86l-94.88-94.88c-1.96-2.61-4.55-3.91-7.82-3.91-3.27 0-6.21 1.3-8.8 3.91l-27.4 27.38c-2.6 2.61-3.91 5.55-3.91 8.8s1.31 5.87 3.91 7.82l130.1 131.07c2.6 1.96 5.53 2.94 8.8 2.94 3.27 0 5.87-.98 7.82-2.94L444.08 183.6c2.6-2.61 3.91-5.55 3.91-8.8.01-3.24-1.3-5.86-3.9-7.81zM131.88 285.04c2.62 1.97 5.58 2.96 8.88 2.96s5.92-.99 7.89-2.96L353.34 80.35c2.62-2.64 3.95-5.6 3.95-8.88 0-3.28-1.33-5.92-3.95-7.89l-27.63-28.62c-2.62-1.97-5.58-2.96-8.88-2.96s-5.92.99-7.89 2.96L140.76 204.12l-60.41-60.41c-1.97-2.64-4.59-3.95-7.89-3.95s-6.26 1.31-8.88 3.95l-27.63 27.63c-2.62 2.64-3.95 5.6-3.95 8.88 0 3.29 1.33 5.92 3.95 7.89l95.93 96.93z"></path></svg>
