<!--<svg width="13" height="13" xmlns="http://www.w3.org/2000/svg" viewBox="0 0 512 512">-->
<!--    <path fill="#6E6E6E" d="M504 256c0 136.997-111.043 248-248 248S8 392.997 8 256C8 119.083 119.043 8 256 8s248 111.083 248 248zm-248 50c-25.405 0-46 20.595-46 46s20.595 46 46 46 46-20.595 46-46-20.595-46-46-46zm-43.673-165.346l7.418 136c.347 6.364 5.609 11.346 11.982 11.346h48.546c6.373 0 11.635-4.982 11.982-11.346l7.418-136c.375-6.874-5.098-12.654-11.982-12.654h-63.383c-6.884 0-12.356 5.78-11.981 12.654z" class=""></path>-->
<!--</svg>-->
<!--<svg xmlns="http://www.w3.org/2000/svg" viewBox="0 0 512 512" class="svg-inline&#45;&#45;fa fa-exclamation-circle fa-w-16 fa-2x"><path fill="#6E6E6E" d="M256 40c118.621 0 216 96.075 216 216 0 119.291-96.61 216-216 216-119.244 0-216-96.562-216-216 0-119.203 96.602-216 216-216m0-32C119.043 8 8 119.083 8 256c0 136.997 111.043 248 248 248s248-111.003 248-248C504 119.083 392.957 8 256 8zm-11.49 120h22.979c6.823 0 12.274 5.682 11.99 12.5l-7 168c-.268 6.428-5.556 11.5-11.99 11.5h-8.979c-6.433 0-11.722-5.073-11.99-11.5l-7-168c-.283-6.818 5.167-12.5 11.99-12.5zM256 340c-15.464 0-28 12.536-28 28s12.536 28 28 28 28-12.536 28-28-12.536-28-28-28z" class=""></path></svg>-->
<svg xmlns="http://www.w3.org/2000/svg" viewBox="0 0 448 512" width="13" height="13">
    <path fill="green" d="m403.52687,177.1871l-9.88005,-8.93755c-1.64938,-2.16939 -3.83502,-3.25002 -6.58941,-3.25002s-4.94003,1.08063 -6.58941,3.25002l-231.40931,227.50117l-81.53479,-80.43791c-1.64938,-2.16939 -3.83502,-3.25002 -6.58941,-3.25002s-4.94003,1.08063 -6.58941,3.25002l-9.88005,8.93755c-1.64938,2.16939 -2.47001,4.6069 -2.47001,7.31254s0.82063,4.87503 2.47001,6.50003l98.00425,96.688c2.18564,2.16939 4.52565,3.25002 7.00379,3.25002s4.81002,-1.08063 7.00379,-3.25002l247.05814,-243.75125c1.64938,-1.62501 2.47001,-3.79439 2.47001,-6.50003s-0.82875,-5.14315 -2.47814,-7.31254zm-258.2057,101.5874c2.15314,2.15314 4.45252,3.22564 6.88191,3.22564s4.72877,-1.07251 6.88191,-3.22564l179.48217,-178.93779c1.61688,-1.62501 2.42939,-3.77814 2.42939,-6.46753s-0.8125,-5.11065 -2.42939,-7.26379l-9.71755,-8.88067c-1.61688,-2.15314 -3.77002,-3.22564 -6.47566,-3.22564s-4.85877,1.07251 -6.47566,3.22564l-164.10147,162.80146l-58.70343,-58.52468c-1.61688,-2.15314 -3.77002,-3.22564 -6.47566,-3.22564s-4.85877,1.07251 -6.47566,3.22564l-9.71755,8.88067c-1.61688,2.15314 -2.42939,4.5744 -2.42939,7.26379s0.8125,4.84252 2.42939,6.45941l74.89663,74.66913z"/>
</svg>
